<?xml version="1.0" encoding="UTF-8"?>
<!DOCTYPE svg PUBLIC "-//W3C//DTD SVG 1.1//EN" "http://www.w3.org/Graphics/SVG/1.1/DTD/svg11.dtd">
<!-- Creator: CorelDRAW 2021 (64-Bit) -->
<svg xmlns="http://www.w3.org/2000/svg" xml:space="preserve" width="195.792mm" height="195.792mm" version="1.1" style="shape-rendering:geometricPrecision; text-rendering:geometricPrecision; image-rendering:optimizeQuality; fill-rule:evenodd; clip-rule:evenodd"
viewBox="0 0 19579.16 19579.16"
 xmlns:xlink="http://www.w3.org/1999/xlink"
 xmlns:xodm="http://www.corel.com/coreldraw/odm/2003">
 <defs>
  <style type="text/css">
   <![CDATA[
    .fil0 {fill:#FE9316}
   ]]>
  </style>
 </defs>
 <g id="Capa_x0020_1">
  <metadata id="CorelCorpID_0Corel-Layer"/>
  <path class="fil0" d="M8053.08 13382.57c-208.79,-96.52 -322.04,-171.25 -476.65,-256.68 -380.55,-210.15 -497.57,-112.56 74.57,-1350.41l841.97 -1821.7 1691.57 781.82c2396.42,1107.6 1141.17,3133.7 -157.12,3243.24 -509.59,42.98 -1330.81,-298.84 -1974.34,-596.27zm2235.09 -4494.07l-1073.51 -496.15 1172.74 -2537.36c722.62,334 2267.95,963.28 2667.82,1502.77 277.64,374.63 322.9,881.45 38.77,1373.15 -584.07,1010.66 -1666.05,684.39 -2805.82,157.59zm-257.52 -5251.29l-2700 -1247.93c-778.85,1685.16 -794.51,1413.82 -286.35,1644.33 158.31,71.82 358.62,162.06 453.71,238.16 261.64,209.23 269.36,418.57 106.54,770.79l-2931.85 6343.39c-294.35,636.87 -800.47,340.62 -1506.78,14.19l-631.45 1366.25c-34.67,74.97 -22.47,108.04 52.49,142.69l2602.41 1202.82 -781.84 1691.58 1789.17 826.92 781.84 -1691.58 1138.55 526.23 -781.84 1691.58 1789.17 826.91 857 -1854.18c173.58,35.88 385.74,79.43 550.37,101.63 466.55,62.92 1403.1,17.89 1822.89,-182.45 541.44,-258.36 1148.49,-611.98 1451.63,-1191.92 245.8,-470.23 357.06,-685.66 411.17,-1176.36 80.24,-727.5 -94.6,-1377.03 -554.59,-1956 -158.34,-199.35 -564.79,-642.7 -810.35,-781.95 133.03,-38.65 565.07,5.21 880.29,-29.22 2061.73,-225.06 2942.81,-2360.46 2009.25,-3868.58 -241.25,-389.82 -638.33,-893.29 -1054.68,-1097.08l857.01 -1854.24 -1789.17 -826.91 -796.87 1724.08 -1138.55 -526.23 796.87 -1724.08 -1789.18 -826.94 -796.86 1724.1zm7242.79 -36.08c3388.57,4118.62 2796.78,10204.39 -1321.84,13592.96 -4118.62,3388.58 -10204.39,2796.75 -13592.96,-1321.87 -3388.58,-4118.62 -2796.78,-10204.39 1321.84,-13592.97 4118.62,-3388.57 10204.38,-2796.74 13592.96,1321.88zm-497.14 409.01c3162.67,3844.04 2610.32,9524.12 -1233.74,12686.8 -3844.05,3162.68 -9524.11,2610.28 -12686.77,-1233.76 -3162.66,-3844.03 -2610.32,-9524.08 1233.73,-12686.75 3844.06,-3162.68 9524.12,-2610.32 12686.78,1233.71z"/>
 </g>
</svg>
